<?xml version="1.0"?>
<svg xmlns="http://www.w3.org/2000/svg" xmlns:xlink="http://www.w3.org/1999/xlink" version="1.1" id="Capa_1" x="0px" y="0px" viewBox="0 0 402.64 402.64" style="enable-background:new 0 0 402.64 402.64;" xml:space="preserve" width="512px" height="512px" class=""><g><g>
	<g>
		<path d="M355.68,39.84c-11.173-5.6-23.502-8.504-36-8.48h-10.16V8c0-4.418-3.582-8-8-8s-8,3.582-8,8v23.36h-184.8V8    c0-4.418-3.582-8-8-8s-8,3.582-8,8v23.36H82.64c-12.498-0.024-24.827,2.88-36,8.48c-14.72,8-32,24.4-32,59.92v234.48    c0,33.04,18,68.4,68.4,68.4H319.6c50.4,0,68.4-35.36,68.4-68.4V99.76C388,64.24,370.4,47.52,355.68,39.84z M372,334.24    c0,15.68-5.12,52.32-52.4,52.32v0.08H82.64c-47.28,0-52.4-36.64-52.4-52.4V151.6H372V334.24z M372.24,135.68h-342V99.76    c0-22.08,8-37.52,23.76-45.76c8.896-4.423,18.705-6.697,28.64-6.64H92.8V68c-14.64,7.2-12,34,8,34s22.64-26.8,8-34V47.36h184.72    V68c-14.64,7.2-12,34,8,34s22.64-26.8,8-34V47.36h10.16c9.908-0.047,19.689,2.227,28.56,6.64c16,8,24,24,24,45.76V135.68z" data-original="#000000" class="active-path" data-old_color="#ff8f02" fill="#ff8f02"/>
	</g>
</g><g>
	<g>
		<path d="M189.6,308.88c-3.387-2.291-7.44-3.389-11.52-3.12h-50.24c1.421-2.191,2.998-4.277,4.72-6.24    c6.096-6.648,12.762-12.752,19.92-18.24c9.653-7.893,16.56-13.707,20.72-17.44c4.704-4.569,8.719-9.797,11.92-15.52    c3.959-6.562,6.009-14.097,5.92-21.76c-0.035-10.105-3.893-19.823-10.8-27.2c-3.363-3.564-7.383-6.443-11.84-8.48    c-7.983-3.291-16.568-4.872-25.2-4.64c-7.283-0.156-14.53,1.066-21.36,3.6c-5.608,2.12-10.725,5.359-15.04,9.52    c-3.834,3.73-6.881,8.192-8.96,13.12c-1.897,4.399-2.903,9.13-2.96,13.92c-0.175,3.223,0.982,6.376,3.2,8.72    c2.107,2.13,5.005,3.289,8,3.2c3.048,0.112,5.985-1.151,8-3.44c2.258-2.992,3.99-6.346,5.12-9.92c0.825-2.757,1.896-5.435,3.2-8    c4.124-7.013,11.705-11.262,19.84-11.12c3.849-0.03,7.645,0.905,11.04,2.72c3.317,1.747,6.085,4.377,8,7.6    c1.99,3.335,3.015,7.157,2.96,11.04c-0.049,4.019-0.977,7.978-2.72,11.6c-2.036,4.266-4.736,8.181-8,11.6    c-4.009,4.171-8.431,7.924-13.2,11.2c-5.191,3.845-10.134,8.013-14.8,12.48c-6.507,6.347-14.053,14.08-22.64,23.2    c-2.363,2.558-4.307,5.474-5.76,8.64c-1.489,2.858-2.387,5.987-2.64,9.2c-0.019,3.579,1.46,7.002,4.08,9.44    c3.065,2.804,7.134,4.247,11.28,4h70.96c3.492,0.282,6.943-0.907,9.52-3.28c2.069-2.141,3.193-5.023,3.12-8    C193.594,314.024,192.163,310.894,189.6,308.88z" data-original="#000000" class="active-path" data-old_color="#ff8f02" fill="#ff8f02"/>
	</g>
</g><g>
	<g>
		<path d="M280,190.4c-1.87-2.645-4.921-4.201-8.16-4.16c-2.205-0.25-4.42,0.383-6.16,1.76c-1.12,1.173-3.467,4.267-7.04,9.28    c-3.59,5.001-7.751,9.565-12.4,13.6c-5.664,4.687-11.933,8.589-18.64,11.6c-3.803,1.663-7.445,3.671-10.88,6    c-2.155,1.745-3.32,4.434-3.12,7.2c-0.003,2.799,1.121,5.481,3.12,7.44c1.844,2.031,4.457,3.193,7.2,3.2    c5.653,0,16.64-6.267,32.96-18.8v88c-0.301,4.206,0.983,8.373,3.6,11.68c2.397,2.669,5.856,4.134,9.44,4    c8.8,0,13.2-6.453,13.2-19.36V201.28C283.331,197.406,282.232,193.574,280,190.4z" data-original="#000000" class="active-path" data-old_color="#ff8f02" fill="#ff8f02"/>
	</g>
</g></g> </svg>
